<?xml version="1.0" encoding="UTF-8"?>
<svg id="Camada_1" data-name="Camada 1" xmlns="http://www.w3.org/2000/svg" viewBox="0 0 115.24 49.72">
  <defs>
    <style>
      .cls-1 {
        fill: #4d4e88;
      }
    </style>
  </defs>
  <g>
    <path class="cls-1" d="M9.4,48.82c-.55.3-1.14.52-1.78.67-.64.15-1.32.23-2.05.23-.81,0-1.56-.12-2.24-.37-.68-.25-1.27-.62-1.76-1.1-.5-.48-.88-1.08-1.16-1.79s-.41-1.52-.41-2.43c0-.65.07-1.24.21-1.78.14-.54.33-1.03.59-1.47.25-.44.56-.82.91-1.16.35-.33.74-.61,1.16-.83.42-.22.87-.39,1.35-.5s.97-.17,1.49-.17c.7,0,1.36.1,1.97.3.61.2,1.17.5,1.68.88l-.48,1.4c-.23-.17-.47-.32-.72-.45-.25-.13-.51-.24-.77-.33-.26-.09-.53-.16-.81-.2-.27-.04-.55-.07-.83-.07-.34,0-.67.04-1,.11-.33.07-.64.19-.93.34-.29.15-.56.35-.8.58-.24.24-.45.51-.63.83-.18.32-.32.68-.42,1.08-.1.4-.15.85-.15,1.34,0,.7.1,1.32.29,1.85.19.53.46.98.81,1.34.34.36.75.63,1.22.81.47.18.98.27,1.53.27.37,0,.72-.03,1.05-.1.33-.06.66-.17.99-.33v-2.88h-2.72v-1.41h4.42v5.31Z"/>
    <path class="cls-1" d="M18.22,39.74h-4.5v3.35h4.12v1.48h-4.12v3.54h4.5v1.46h-6.26v-11.29h6.26v1.46Z"/>
    <path class="cls-1" d="M20.59,47.38c.4.27.82.48,1.27.63.45.15.9.22,1.35.22.3,0,.57-.04.82-.11s.46-.17.64-.31c.18-.14.31-.3.41-.49.1-.19.14-.41.14-.66,0-.3-.07-.55-.22-.77-.15-.22-.34-.41-.58-.58-.24-.17-.51-.33-.82-.47s-.62-.29-.94-.44c-.32-.15-.63-.31-.94-.49-.31-.18-.58-.39-.82-.63-.24-.24-.44-.53-.58-.85s-.22-.71-.22-1.16c0-.49.09-.93.27-1.32s.43-.72.74-.99c.32-.27.7-.48,1.14-.62.44-.14.93-.21,1.46-.21s1.04.07,1.49.21c.45.14.88.35,1.29.62l-.44,1.41c-.38-.24-.76-.43-1.15-.55s-.79-.19-1.19-.19c-.27,0-.51.03-.74.1-.23.07-.42.16-.58.29-.16.13-.29.28-.39.46-.1.18-.14.39-.14.62,0,.29.07.54.22.75.15.21.34.4.58.56.24.17.51.32.82.46.31.14.62.28.94.43s.63.32.94.5.58.4.82.65.43.54.58.87c.15.33.22.73.22,1.19,0,.5-.09.95-.28,1.34-.19.4-.45.73-.79,1.01-.34.28-.74.49-1.2.64s-.96.22-1.5.22c-.61,0-1.17-.08-1.67-.23-.5-.15-.96-.38-1.36-.67l.41-1.45Z"/>
    <path class="cls-1" d="M35.94,39.78h-3.3v9.79h-1.77v-9.79h-3.31v-1.5h8.38v1.5Z"/>
    <path class="cls-1" d="M41.35,38.28c.76,1.86,1.44,3.74,2.03,5.64.59,1.9,1.09,3.79,1.47,5.64h-1.81c-.08-.4-.16-.81-.25-1.22s-.19-.83-.3-1.24h-4.5c-.11.41-.21.83-.3,1.24s-.17.82-.25,1.22h-1.77c.39-1.86.88-3.74,1.48-5.64.6-1.9,1.27-3.78,2.03-5.64h2.17ZM43.27,35.45c-.18.45-.43.79-.76,1.04-.33.25-.72.37-1.15.37-.28,0-.52-.04-.72-.13s-.4-.18-.58-.28c-.18-.1-.35-.19-.52-.28-.17-.09-.35-.13-.54-.13-.22,0-.42.07-.6.22s-.33.36-.45.64l-.85-.88c.18-.45.43-.79.77-1.04.34-.25.73-.38,1.17-.38.27,0,.5.04.71.13.21.08.4.18.58.27s.35.19.52.27c.17.08.35.13.55.13.44,0,.79-.28,1.06-.85l.84.9ZM42.11,45.64c-.27-.95-.56-1.89-.87-2.83-.31-.94-.65-1.85-1-2.75-.35.9-.68,1.81-1,2.75-.31.94-.6,1.88-.87,2.83h3.74Z"/>
    <path class="cls-1" d="M51.51,38.12c.47,0,.93.06,1.38.17s.88.28,1.28.49c.4.22.77.49,1.1.81.33.32.62.7.87,1.12s.44.9.57,1.43c.14.52.21,1.1.21,1.72s-.07,1.22-.21,1.76c-.14.53-.33,1.02-.58,1.45s-.54.82-.88,1.15c-.34.33-.72.61-1.13.83-.41.22-.84.39-1.31.5-.46.11-.94.17-1.42.17s-.93-.06-1.38-.17c-.45-.11-.88-.27-1.28-.49-.4-.21-.77-.48-1.11-.81-.34-.32-.63-.7-.88-1.12s-.43-.9-.57-1.43c-.14-.52-.2-1.1-.2-1.72s.07-1.22.21-1.76c.14-.54.33-1.02.58-1.46.25-.43.55-.82.89-1.15.34-.33.72-.61,1.13-.83.41-.22.84-.39,1.31-.5.46-.11.94-.17,1.42-.17ZM51.43,39.65c-.46,0-.91.09-1.35.28-.44.19-.83.46-1.17.81s-.61.8-.82,1.33c-.21.53-.31,1.14-.31,1.82s.1,1.33.31,1.88c.2.54.48.99.82,1.35.34.36.73.63,1.18.81.45.18.92.27,1.4.27.46,0,.9-.09,1.34-.27.43-.18.82-.45,1.16-.81.34-.36.61-.8.82-1.33.2-.53.31-1.14.31-1.83s-.1-1.33-.3-1.87-.47-.99-.82-1.35c-.34-.36-.73-.63-1.18-.81-.44-.18-.91-.27-1.39-.27Z"/>
    <path class="cls-1" d="M69.95,38.72h-4.94v4.84h4.45v.44h-4.45v5.14h4.94v.44h-5.43v-11.29h5.43v.44Z"/>
    <path class="cls-1" d="M79.55,38.28c-.25.48-.51.96-.79,1.44-.28.48-.57.96-.87,1.43-.3.47-.61.94-.94,1.39s-.65.9-.99,1.34c.69.93,1.35,1.88,1.99,2.85.64.96,1.23,1.91,1.76,2.84h-.56c-.48-.84-1.03-1.71-1.63-2.61-.61-.9-1.25-1.81-1.92-2.72-.38.48-.75.96-1.09,1.42s-.67.92-.97,1.37c-.3.44-.58.88-.83,1.3-.25.42-.48.83-.68,1.23h-.56c.51-.96,1.09-1.92,1.73-2.87s1.35-1.9,2.11-2.84c-.67-.92-1.32-1.84-1.94-2.77-.62-.93-1.2-1.87-1.74-2.8h.56c.49.84,1.03,1.69,1.61,2.57.59.88,1.21,1.76,1.85,2.65.67-.87,1.29-1.74,1.85-2.62s1.05-1.74,1.48-2.6h.55Z"/>
    <path class="cls-1" d="M82.14,38.28c.29-.04.57-.06.84-.07.27-.01.5-.02.7-.02.74,0,1.41.08,1.99.23.59.15,1.09.38,1.49.67s.72.65.94,1.07c.22.42.33.9.33,1.43,0,.58-.11,1.1-.33,1.56-.22.46-.53.84-.94,1.16-.41.31-.91.56-1.51.72-.6.17-1.27.25-2.04.25-.13,0-.28,0-.45-.01-.17,0-.35-.02-.54-.04v4.33h-.49v-11.29ZM82.62,44.8c.21.03.41.04.59.05.18,0,.34.01.47.01.67,0,1.27-.07,1.8-.22.53-.15.97-.36,1.34-.63s.64-.61.83-1,.29-.84.29-1.35c0-.48-.1-.9-.29-1.28s-.48-.69-.85-.96-.82-.46-1.36-.6c-.54-.14-1.14-.21-1.81-.21-.14,0-.29,0-.47.01-.17,0-.35.02-.53.05v6.12Z"/>
    <path class="cls-1" d="M96.54,38.72h-4.94v4.84h4.45v.44h-4.45v5.14h4.94v.44h-5.43v-11.29h5.43v.44Z"/>
    <path class="cls-1" d="M99.65,38.28c.31-.04.6-.06.89-.08.28-.02.52-.02.72-.02.71,0,1.34.07,1.91.21s1.04.35,1.44.62c.39.27.69.6.91.98.21.38.32.81.32,1.29,0,.43-.07.82-.22,1.18-.15.36-.36.68-.64.96-.28.28-.63.51-1.04.7-.41.19-.88.32-1.4.41.59.77,1.18,1.58,1.76,2.43s1.15,1.72,1.71,2.62h-.55c-.49-.79-1.03-1.62-1.62-2.47s-1.19-1.69-1.82-2.51c-.27.03-.56.04-.9.03-.33,0-.65-.02-.97-.05v5h-.49v-11.29ZM100.13,44.15c.2.02.4.03.58.04.19,0,.37.01.54.01.64,0,1.21-.06,1.71-.19.5-.13.93-.32,1.27-.56.35-.24.61-.54.8-.9s.27-.76.27-1.21-.09-.81-.28-1.15-.46-.63-.81-.86c-.35-.24-.79-.41-1.3-.54-.51-.12-1.09-.18-1.74-.18-.14,0-.3,0-.48.01-.18,0-.38.03-.58.05v5.48Z"/>
    <path class="cls-1" d="M115.24,38.72h-3.75v10.85h-.49v-10.85h-3.75v-.44h7.99v.44Z"/>
  </g>
  <g>
    <path class="cls-1" d="M20.64,27.62c1.21.67,2.4,1.39,3.73,1.82.59.19,2.97.84,3.41.84h39.93l-16.08-17.43h-16.5l3.34,4.64,11.56.15,6.92,7.54.54.64h-28.22c-5.16,0-10.19-4.78-10.55-9.88-.41-5.93,4.52-11.38,10.55-11.38h15.01L40.3.14c-7.82.22-14.97-1.66-21.36,3.89-6.6,5.73-6.87,16.31-.21,22.12"/>
    <polygon class="cls-1" points="100.93 .09 47.05 .09 50.99 4.56 100.93 4.56 100.93 .09"/>
    <polygon class="cls-1" points="98.16 12.85 58.77 12.85 62.92 17.53 98.16 17.53 98.16 12.85"/>
    <path class="cls-1" d="M100.93,25.82h-30.24c1.36,1.49,2.66,2.93,3.94,4.46h26.3v-4.46Z"/>
  </g>
</svg>